# Blender 3.6.5
# www.blender.org
mtllib arrow.mtl
o DefaultCube
v 0.000000 -0.200000 0.358595
v 0.000000 -0.000000 0.358595
v 0.353553 -0.200000 -0.348512
v 0.353553 -0.000000 -0.348512
v -0.353553 -0.200000 -0.348512
v -0.353553 -0.000000 -0.348512
v 0.000000 -0.200000 -0.167784
v 0.000000 -0.000000 -0.167784
vn -0.0000 -1.0000 -0.0000
vn -0.4552 -0.0000 -0.8904
vn 0.4552 -0.0000 -0.8904
vn -0.0000 1.0000 -0.0000
vn 0.8944 -0.0000 0.4472
vn -0.8944 -0.0000 0.4472
vt 0.625000 0.500000
vt 0.875000 0.750000
vt 0.625000 0.750000
vt 0.375000 1.000000
vt 0.375000 0.750000
vt 0.625000 0.000000
vt 0.375000 0.250000
vt 0.375000 0.000000
vt 0.375000 0.500000
vt 0.125000 0.750000
vt 0.125000 0.500000
vt 0.625000 0.250000
vt 0.875000 0.500000
vt 0.625000 1.000000
s 0
usemtl Material
f 1/1/1 7/2/1 3/3/1
f 3/3/2 8/4/2 4/5/2
f 7/6/3 6/7/3 8/8/3
f 2/9/4 8/10/4 6/11/4
f 1/1/5 4/5/5 2/9/5
f 5/12/6 2/9/6 6/7/6
f 1/1/1 5/13/1 7/2/1
f 3/3/2 7/14/2 8/4/2
f 7/6/3 5/12/3 6/7/3
f 2/9/4 4/5/4 8/10/4
f 1/1/5 3/3/5 4/5/5
f 5/12/6 1/1/6 2/9/6
